<svg width="52" height="60" viewBox="0 0 52 60" fill="none" xmlns="http://www.w3.org/2000/svg">
<g filter="url(#filter0_f_2098_63)">
<ellipse cx="26" cy="53.5" rx="7" ry="2.5" fill="black" fill-opacity="0.2"/>
</g>
<g filter="url(#filter1_d_2098_63)">
<path fill-rule="evenodd" clip-rule="evenodd" d="M26 4C37.598 4 47 13.402 47 25C47 33.8926 41.4727 41.4942 33.6663 44.5567L27.1961 53.4007C27.0612 53.5858 26.8821 53.7369 26.6739 53.8412C26.4657 53.9455 26.2346 54 26 54C25.7654 54 25.5343 53.9455 25.3261 53.8412C25.1179 53.7369 24.9388 53.5858 24.8039 53.4007L18.3337 44.5567C10.5273 41.4941 5 33.8926 5 25C5 13.402 14.402 4 26 4Z" fill="white"/>
</g>
<path d="M43 25C43 15.6112 35.3888 8 26 8C16.6112 8 9 15.6112 9 25C9 34.3888 16.6112 42 26 42C35.3888 42 43 34.3888 43 25Z" fill="#630000"/>
<path d="M28.7087 15.6667H23.292C21.8008 15.669 20.3714 16.2623 19.317 17.3167C18.2625 18.3711 17.6692 19.8006 17.667 21.2917V26.7084C17.667 28.2003 18.2596 29.631 19.3145 30.6859C20.3694 31.7408 21.8001 32.3334 23.292 32.3334H28.7087C30.2005 32.3334 31.6312 31.7408 32.6861 30.6859C33.741 29.631 34.3337 28.2003 34.3337 26.7084V21.2917C34.3315 19.8006 33.7381 18.3711 32.6837 17.3167C31.6293 16.2623 30.1998 15.669 28.7087 15.6667ZM30.592 24.8834C30.592 25.1663 30.4796 25.4376 30.2796 25.6377C30.0795 25.8377 29.8082 25.9501 29.5253 25.9501H27.9503V27.5334C27.946 27.815 27.8323 28.0838 27.6332 28.2829C27.434 28.482 27.1652 28.5958 26.8837 28.6001H25.117C24.9773 28.5994 24.8391 28.5711 24.7103 28.5167C24.5816 28.4624 24.4649 28.3831 24.367 28.2834C24.1679 28.0841 24.0544 27.8151 24.0503 27.5334V25.9501H22.4753C22.3348 25.9516 22.1953 25.9251 22.0651 25.8722C21.9349 25.8193 21.8166 25.7409 21.717 25.6417C21.519 25.439 21.4083 25.1668 21.4087 24.8834V23.1251C21.4083 22.8417 21.519 22.5695 21.717 22.3667C21.8166 22.2676 21.9349 22.1892 22.0651 22.1363C22.1953 22.0834 22.3348 22.0569 22.4753 22.0584H24.0503V20.4751C24.0538 20.1949 24.1641 19.9267 24.3587 19.7251C24.4576 19.6244 24.5756 19.5445 24.7058 19.4901C24.8361 19.4358 24.9759 19.408 25.117 19.4084H26.867C27.0062 19.4075 27.1442 19.4343 27.273 19.4873C27.4017 19.5402 27.5187 19.6182 27.617 19.7167C27.817 19.9184 27.9312 20.1909 27.9337 20.4751V22.0584H29.5087C29.792 22.0584 30.0645 22.1684 30.267 22.3667C30.4653 22.5692 30.5762 22.8417 30.5753 23.1251L30.592 24.8834Z" fill="white"/>
<path d="M29.3669 23.3084V24.7001H27.3502C27.1844 24.7001 27.0255 24.766 26.9083 24.8832C26.791 25.0004 26.7252 25.1594 26.7252 25.3251V27.3501H25.3252V25.3251C25.323 25.16 25.2565 25.0023 25.1398 24.8856C25.023 24.7688 24.8653 24.7023 24.7002 24.7001H22.7002V23.3084H24.7169C24.882 23.3063 25.0397 23.2397 25.1564 23.123C25.2732 23.0063 25.3397 22.8485 25.3419 22.6834V20.6584H26.7419V22.6834C26.7419 22.8492 26.8077 23.0082 26.9249 23.1254C27.0421 23.2426 27.2011 23.3084 27.3669 23.3084H29.3669Z" fill="white"/>
<defs>
<filter id="filter0_f_2098_63" x="17" y="49" width="18" height="9" filterUnits="userSpaceOnUse" color-interpolation-filters="sRGB">
<feFlood flood-opacity="0" result="BackgroundImageFix"/>
<feBlend mode="normal" in="SourceGraphic" in2="BackgroundImageFix" result="shape"/>
<feGaussianBlur stdDeviation="1" result="effect1_foregroundBlur_2098_63"/>
</filter>
<filter id="filter1_d_2098_63" x="0" y="0" width="52" height="60" filterUnits="userSpaceOnUse" color-interpolation-filters="sRGB">
<feFlood flood-opacity="0" result="BackgroundImageFix"/>
<feColorMatrix in="SourceAlpha" type="matrix" values="0 0 0 0 0 0 0 0 0 0 0 0 0 0 0 0 0 0 127 0" result="hardAlpha"/>
<feOffset dy="1"/>
<feGaussianBlur stdDeviation="2.5"/>
<feComposite in2="hardAlpha" operator="out"/>
<feColorMatrix type="matrix" values="0 0 0 0 0 0 0 0 0 0 0 0 0 0 0 0 0 0 0.1 0"/>
<feBlend mode="normal" in2="BackgroundImageFix" result="effect1_dropShadow_2098_63"/>
<feBlend mode="normal" in="SourceGraphic" in2="effect1_dropShadow_2098_63" result="shape"/>
</filter>
</defs>
</svg>
